<svg width="40" height="46" viewBox="0 0 40 46" fill="none" xmlns="http://www.w3.org/2000/svg">
<path fill-rule="evenodd" clip-rule="evenodd" d="M16.5385 44.5505C17.5869 45.1761 18.7828 45.5041 20 45.5C21.2149 45.5021 22.4089 45.1799 23.4615 44.566L36.6 36.7832C37.6304 36.1669 38.4853 35.2909 39.0812 34.2405C39.6771 33.1902 39.9937 32.0015 40 30.7904V15.2248C39.9963 14.0111 39.681 12.8192 39.085 11.7659C38.489 10.7126 37.6327 9.8341 36.6 9.21646L23.4615 1.43364C22.4081 0.821896 21.2146 0.5 20 0.5C18.7854 0.5 17.5919 0.821896 16.5385 1.43364L3.4 9.21646C2.36735 9.8341 1.51104 10.7126 0.915006 11.7659C0.318971 12.8192 0.00366739 14.0111 0 15.2248V30.7904C0.00366739 32.0041 0.318971 33.196 0.915006 34.2493C1.51104 35.3026 2.36735 36.1811 3.4 36.7988L16.5385 44.5505ZM18.1272 15.5136C18.1312 15.0305 18.3169 14.5671 18.6464 14.2175C18.976 13.868 19.4247 13.6585 19.9014 13.6316C20.3781 13.6047 20.8471 13.7625 21.213 14.0728C21.5789 14.3832 21.8142 14.8228 21.8713 15.3024L25.6363 15.3024C25.1222 8.01288 14.9037 8.02386 14.3748 15.3024C14.3669 15.9711 14.3688 18.3016 14.3705 20.2344V20.2346V20.2348V20.235C14.3715 21.4576 14.3724 22.5211 14.3706 22.904H18.1272V15.5136ZM21.8841 29.0272V22.9037V21.6367H25.6407V29.0272C25.3512 36.4539 14.9368 36.6515 14.375 29.2384L18.14 29.2383C18.1955 29.6994 18.416 30.124 18.7597 30.4319C19.1034 30.7399 19.5466 30.9099 20.0057 30.9099C20.4648 30.9099 20.9081 30.7399 21.2518 30.432C21.5955 30.124 21.816 29.6995 21.8715 29.2384C21.88 29.1683 21.8842 29.0978 21.8841 29.0272ZM26.6795 16.5704H19.375V20.3712H26.6795C27.157 20.3753 27.615 20.5631 27.9606 20.8965C28.3061 21.2299 28.5132 21.684 28.5397 22.1663C28.5663 22.6487 28.4104 23.1232 28.1036 23.4934C27.7968 23.8636 27.3623 24.1017 26.8882 24.1594L26.8882 27.9687C28.3108 27.9208 29.6618 27.3257 30.6657 26.3047C34.2029 22.7827 31.646 16.5381 26.6795 16.5704ZM13.3273 24.1708H20.6319V27.9716H13.3273C11.8509 27.9716 10.4335 27.3854 9.37986 26.339C8.32624 25.2926 7.72062 23.8696 7.69328 22.3761C7.66593 20.8826 8.21904 19.4379 9.23363 18.3527C10.2482 17.2675 11.6432 16.6286 13.1186 16.5733V20.3826C12.6416 20.4365 12.2031 20.6732 11.8931 21.044C11.5832 21.4148 11.4253 21.8917 11.4521 22.3766C11.4788 22.8615 11.688 23.3176 12.0368 23.6513C12.3855 23.985 12.8473 24.1708 13.3273 24.1708Z" fill="#5448C8"/>
</svg>
